<?xml version="1.0" standalone="no"?>
 <!DOCTYPE svg PUBLIC "-//W3C//DTD SVG 1.1//EN" 
 "http://www.w3.org/Graphics/SVG/1.1/DTD/svg11.dtd"> 
<svg xmlns="http://www.w3.org/2000/svg" version="1.1" 
    width="29.7002cm" height="21.0007cm" viewBox="0 0 116930 82680 ">
<title>SVG Picture created as 3v3 psu.svg date 2014/12/20 22:50:04 </title>
  <desc>Picture generated by Eeschema-SVG </desc>
<g style="fill:#000000; fill-opacity:1;stroke:#000000; stroke-opacity:1;
stroke-linecap:round; stroke-linejoin:round; "
 transform="translate(0 0) scale(1 1)">
</g>
<g style="fill:#A00000; fill-opacity:0.0; 
stroke:#A00000; stroke-width:100; stroke-opacity:1; 
stroke-linecap:round; stroke-linejoin:round;">
<path d="M4000 4000
L112930 4000
L112930 78680
L4000 78680
L4000 4000
" />
<path d="M4700 4700
L112230 4700
L112230 77980
L4700 77980
L4700 4700
" />
<path d="M25780 4000
L25780 4700
" />
<path d="M15030 4550
L14750 4550
" />
<path d="M14890 4550
L14890 4050
L14840 4120
L14790 4170
L14750 4200
" />
<path d="M25780 78680
L25780 77980
" />
<path d="M15030 78530
L14750 78530
" />
<path d="M14890 78530
L14890 78030
L14840 78100
L14790 78150
L14750 78180
" />
<path d="M47560 4000
L47560 4700
" />
<path d="M36530 4100
L36550 4080
L36600 4050
L36720 4050
L36760 4080
L36790 4100
L36810 4150
L36810 4200
L36790 4270
L36500 4550
L36810 4550
" />
<path d="M47560 78680
L47560 77980
" />
<path d="M36530 78080
L36550 78060
L36600 78030
L36720 78030
L36760 78060
L36790 78080
L36810 78130
L36810 78180
L36790 78250
L36500 78530
L36810 78530
" />
<path d="M69340 4000
L69340 4700
" />
<path d="M58280 4050
L58590 4050
L58420 4240
L58500 4240
L58540 4270
L58570 4290
L58590 4340
L58590 4460
L58570 4500
L58540 4530
L58500 4550
L58350 4550
L58310 4530
L58280 4500
" />
<path d="M69340 78680
L69340 77980
" />
<path d="M58280 78030
L58590 78030
L58420 78220
L58500 78220
L58540 78250
L58570 78270
L58590 78320
L58590 78440
L58570 78480
L58540 78510
L58500 78530
L58350 78530
L58310 78510
L58280 78480
" />
<path d="M91120 4000
L91120 4700
" />
<path d="M80320 4220
L80320 4550
" />
<path d="M80200 4030
L80090 4390
L80390 4390
" />
<path d="M91120 78680
L91120 77980
" />
<path d="M80320 78200
L80320 78530
" />
<path d="M80200 78010
L80090 78370
L80390 78370
" />
<path d="M102130 4050
L101890 4050
L101870 4290
L101890 4270
L101940 4240
L102060 4240
L102100 4270
L102130 4290
L102150 4340
L102150 4460
L102130 4500
L102100 4530
L102060 4550
L101940 4550
L101890 4530
L101870 4500
" />
<path d="M102130 78030
L101890 78030
L101870 78270
L101890 78250
L101940 78220
L102060 78220
L102100 78250
L102130 78270
L102150 78320
L102150 78440
L102130 78480
L102100 78510
L102060 78530
L101940 78530
L101890 78510
L101870 78480
" />
<path d="M4000 28890
L4700 28890
" />
<path d="M4240 16510
L4470 16510
" />
<path d="M4190 16650
L4350 16150
L4520 16650
" />
<path d="M112930 28890
L112230 28890
" />
<path d="M112470 16510
L112700 16510
" />
<path d="M112420 16650
L112580 16150
L112750 16650
" />
<path d="M4000 53780
L4700 53780
" />
<path d="M4390 41280
L4460 41300
L4480 41330
L4500 41380
L4500 41450
L4480 41490
L4460 41520
L4410 41540
L4220 41540
L4220 41040
L4390 41040
L4430 41070
L4460 41090
L4480 41140
L4480 41190
L4460 41230
L4430 41260
L4390 41280
L4220 41280
" />
<path d="M112930 53780
L112230 53780
" />
<path d="M112620 41280
L112690 41300
L112710 41330
L112730 41380
L112730 41450
L112710 41490
L112690 41520
L112640 41540
L112450 41540
L112450 41040
L112620 41040
L112660 41070
L112690 41090
L112710 41140
L112710 41190
L112690 41230
L112660 41260
L112620 41280
L112450 41280
" />
<path d="M4500 66380
L4480 66410
L4410 66430
L4360 66430
L4290 66410
L4240 66360
L4220 66310
L4200 66220
L4200 66150
L4220 66050
L4240 66000
L4290 65960
L4360 65930
L4410 65930
L4480 65960
L4500 65980
" />
<path d="M112730 66380
L112710 66410
L112640 66430
L112590 66430
L112520 66410
L112470 66360
L112450 66310
L112430 66220
L112430 66150
L112450 66050
L112470 66000
L112520 65960
L112590 65930
L112640 65930
L112710 65960
L112730 65980
" />
<path d="M79380 76420
L79450 75820
L79600 75820
L79680 75850
L79730 75910
L79750 75970
L79770 76080
L79760 76170
L79720 76280
L79680 76340
L79610 76390
L79530 76420
L79380 76420
" />
<path d="M80240 76420
L80280 76110
L80250 76050
L80200 76020
L80090 76020
L80020 76050
" />
<path d="M80240 76390
L80180 76420
L80040 76420
L79980 76390
L79960 76340
L79970 76280
L80000 76220
L80070 76190
L80210 76190
L80270 76170
" />
<path d="M80490 76020
L80720 76020
" />
<path d="M80590 75820
L80530 76340
L80550 76390
L80610 76420
L80670 76420
" />
<path d="M81090 76390
L81030 76420
L80920 76420
L80860 76390
L80840 76340
L80870 76110
L80900 76050
L80970 76020
L81080 76020
L81130 76050
L81160 76110
L81150 76170
L80850 76220
" />
<path d="M81370 76370
L81400 76390
L81370 76420
L81340 76390
L81370 76370
L81370 76420
" />
<path d="M81410 76050
L81440 76080
L81410 76110
L81380 76080
L81410 76050
L81410 76110
" />
<path d="M82160 75880
L82190 75850
L82250 75820
L82390 75820
L82450 75850
L82480 75880
L82500 75940
L82490 75990
L82450 76080
L82070 76420
L82440 76420
" />
<path d="M82880 75820
L82930 75820
L82990 75850
L83020 75880
L83040 75940
L83050 76050
L83040 76190
L82990 76310
L82950 76370
L82920 76390
L82860 76420
L82810 76420
L82750 76390
L82720 76370
L82700 76310
L82690 76190
L82700 76050
L82750 75940
L82790 75880
L82820 75850
L82880 75820
" />
<path d="M83980 76420
L84050 75820
" />
<path d="M83980 76390
L83920 76420
L83810 76420
L83750 76390
L83720 76370
L83700 76310
L83720 76140
L83760 76080
L83790 76050
L83860 76020
L83970 76020
L84020 76050
" />
<path d="M84490 76390
L84430 76420
L84320 76420
L84260 76390
L84240 76340
L84270 76110
L84300 76050
L84370 76020
L84480 76020
L84530 76050
L84560 76110
L84550 76170
L84250 76220
" />
<path d="M85030 76390
L84970 76420
L84860 76420
L84800 76390
L84770 76370
L84750 76310
L84770 76140
L84810 76080
L84840 76050
L84910 76020
L85020 76020
L85070 76050
" />
<path d="M85780 75880
L85810 75850
L85870 75820
L86010 75820
L86070 75850
L86100 75880
L86120 75940
L86110 75990
L86070 76080
L85690 76420
L86060 76420
" />
<path d="M86500 75820
L86550 75820
L86610 75850
L86640 75880
L86660 75940
L86670 76050
L86660 76190
L86610 76310
L86570 76370
L86540 76390
L86480 76420
L86430 76420
L86370 76390
L86340 76370
L86320 76310
L86310 76190
L86320 76050
L86370 75940
L86410 75880
L86440 75850
L86500 75820
" />
<path d="M87200 76420
L86850 76420
" />
<path d="M87030 76420
L87100 75820
L87030 75910
L86960 75970
L86900 75990
" />
<path d="M87760 76020
L87710 76420
" />
<path d="M87650 75790
L87440 76220
L87820 76220
" />
<path d="M70970 77620
L70970 77020
" />
<path d="M71320 77620
L71060 77280
" />
<path d="M71320 77020
L70970 77370
" />
<path d="M71570 77620
L71570 77220
" />
<path d="M71570 77020
L71540 77050
L71570 77080
L71600 77050
L71570 77020
L71570 77080
" />
<path d="M72210 77570
L72180 77590
L72090 77620
L72030 77620
L71950 77590
L71890 77540
L71860 77480
L71830 77370
L71830 77280
L71860 77170
L71890 77110
L71950 77050
L72030 77020
L72090 77020
L72180 77050
L72210 77080
" />
<path d="M72720 77620
L72720 77310
L72690 77250
L72630 77220
L72520 77220
L72460 77250
" />
<path d="M72720 77590
L72660 77620
L72520 77620
L72460 77590
L72430 77540
L72430 77480
L72460 77420
L72520 77390
L72660 77390
L72720 77370
" />
<path d="M73260 77620
L73260 77020
" />
<path d="M73260 77590
L73200 77620
L73090 77620
L73030 77590
L73000 77570
L72970 77510
L72970 77340
L73000 77280
L73030 77250
L73090 77220
L73200 77220
L73260 77250
" />
<path d="M74000 77310
L74200 77310
" />
<path d="M74290 77620
L74000 77620
L74000 77020
L74290 77020
" />
<path d="M74540 77570
L74570 77590
L74540 77620
L74510 77590
L74540 77570
L74540 77620
" />
<path d="M74830 77620
L74830 77020
L74980 77020
L75060 77050
L75120 77110
L75150 77170
L75180 77280
L75180 77370
L75150 77480
L75120 77540
L75060 77590
L74980 77620
L74830 77620
" />
<path d="M75430 77570
L75460 77590
L75430 77620
L75400 77590
L75430 77570
L75430 77620
" />
<path d="M75690 77450
L75980 77450
" />
<path d="M75640 77620
L75840 77020
L76040 77620
" />
<path d="M76230 77570
L76260 77590
L76230 77620
L76200 77590
L76230 77570
L76230 77620
" />
<path d="M104530 76420
L104360 76140
" />
<path d="M104180 76420
L104250 75820
L104480 75820
L104540 75850
L104570 75880
L104590 75940
L104580 76020
L104540 76080
L104510 76110
L104440 76140
L104210 76140
" />
<path d="M105010 76390
L104950 76420
L104840 76420
L104780 76390
L104760 76340
L104790 76110
L104820 76050
L104890 76020
L105000 76020
L105050 76050
L105080 76110
L105070 76170
L104770 76220
" />
<path d="M105290 76020
L105380 76420
L105570 76020
" />
<path d="M105750 76370
L105780 76390
L105750 76420
L105720 76390
L105750 76370
L105750 76420
" />
<path d="M105790 76050
L105820 76080
L105790 76110
L105760 76080
L105790 76050
L105790 76110
" />
<path d="M70940 76390
L71030 76420
L71170 76420
L71230 76390
L71260 76370
L71290 76310
L71290 76250
L71260 76190
L71230 76170
L71170 76140
L71060 76110
L71000 76080
L70970 76050
L70940 75990
L70940 75940
L70970 75880
L71000 75850
L71060 75820
L71200 75820
L71290 75850
" />
<path d="M71540 76420
L71540 76020
" />
<path d="M71540 75820
L71510 75850
L71540 75880
L71570 75850
L71540 75820
L71540 75880
" />
<path d="M71780 76020
L72090 76020
L71780 76420
L72090 76420
" />
<path d="M72550 76390
L72490 76420
L72380 76420
L72320 76390
L72290 76340
L72290 76110
L72320 76050
L72380 76020
L72490 76020
L72550 76050
L72580 76110
L72580 76170
L72290 76220
" />
<path d="M72830 76370
L72860 76390
L72830 76420
L72800 76390
L72830 76370
L72830 76420
" />
<path d="M72830 76050
L72860 76080
L72830 76110
L72800 76080
L72830 76050
L72830 76110
" />
<path d="M73550 76250
L73840 76250
" />
<path d="M73500 76420
L73700 75820
L73900 76420
" />
<path d="M74350 76020
L74350 76420
" />
<path d="M74210 75790
L74060 76220
L74440 76220
" />
<path d="M104170 77620
L104170 77020
" />
<path d="M104720 77620
L104720 77020
" />
<path d="M104720 77590
L104660 77620
L104550 77620
L104490 77590
L104460 77570
L104430 77510
L104430 77340
L104460 77280
L104490 77250
L104550 77220
L104660 77220
L104720 77250
" />
<path d="M105000 77570
L105030 77590
L105000 77620
L104970 77590
L105000 77570
L105000 77620
" />
<path d="M105000 77250
L105030 77280
L105000 77310
L104970 77280
L105000 77250
L105000 77310
" />
<path d="M106070 77620
L105720 77620
" />
<path d="M105900 77620
L105900 77020
L105840 77110
L105780 77170
L105720 77190
" />
<path d="M106750 76990
L106240 77770
" />
<path d="M107270 77620
L106920 77620
" />
<path d="M107100 77620
L107100 77020
L107040 77110
L106980 77170
L106920 77190
" />
<path d="M70970 74620
L71310 74620
" />
<path d="M71070 75220
L71140 74620
" />
<path d="M71440 75220
L71490 74820
" />
<path d="M71510 74620
L71480 74650
L71510 74680
L71540 74650
L71510 74620
L71510 74680
" />
<path d="M71700 74820
L71930 74820
" />
<path d="M71800 74620
L71740 75140
L71760 75190
L71820 75220
L71880 75220
" />
<path d="M72160 75220
L72100 75190
L72080 75140
L72140 74620
" />
<path d="M72610 75190
L72550 75220
L72440 75220
L72380 75190
L72360 75140
L72390 74910
L72420 74850
L72490 74820
L72600 74820
L72650 74850
L72680 74910
L72670 74970
L72370 75020
" />
<path d="M72890 75170
L72920 75190
L72890 75220
L72860 75190
L72890 75170
L72890 75220
" />
<path d="M72930 74850
L72960 74880
L72930 74910
L72900 74880
L72930 74850
L72930 74910
" />
<path d="M71170 72510
L70970 72510
" />
<path d="M70970 72820
L70970 72220
L71260 72220
" />
<path d="M71480 72820
L71480 72420
" />
<path d="M71480 72220
L71450 72250
L71480 72280
L71510 72250
L71480 72220
L71480 72280
" />
<path d="M71860 72820
L71800 72790
L71770 72740
L71770 72220
" />
<path d="M72310 72790
L72250 72820
L72140 72820
L72080 72790
L72050 72740
L72050 72510
L72080 72450
L72140 72420
L72250 72420
L72310 72450
L72340 72510
L72340 72570
L72050 72620
" />
<path d="M72590 72770
L72620 72790
L72590 72820
L72560 72790
L72590 72770
L72590 72820
" />
<path d="M72590 72450
L72620 72480
L72590 72510
L72560 72480
L72590 72450
L72590 72510
" />
<path d="M73290 72220
L73660 72220
L73460 72450
L73540 72450
L73600 72480
L73630 72510
L73660 72570
L73660 72710
L73630 72770
L73600 72790
L73540 72820
L73370 72820
L73310 72790
L73290 72770
" />
<path d="M73860 72420
L74000 72820
L74140 72420
" />
<path d="M74320 72220
L74690 72220
L74490 72450
L74570 72450
L74630 72480
L74660 72510
L74690 72570
L74690 72710
L74660 72770
L74630 72790
L74570 72820
L74400 72820
L74340 72790
L74320 72770
" />
<path d="M75400 72420
L75400 73020
" />
<path d="M75400 72450
L75460 72420
L75570 72420
L75630 72450
L75660 72480
L75690 72540
L75690 72710
L75660 72770
L75630 72790
L75570 72820
L75460 72820
L75400 72790
" />
<path d="M75910 72790
L75970 72820
L76090 72820
L76140 72790
L76170 72740
L76170 72710
L76140 72650
L76090 72620
L76000 72620
L75940 72590
L75910 72540
L75910 72510
L75940 72450
L76000 72420
L76090 72420
L76140 72450
" />
<path d="M76690 72420
L76690 72820
" />
<path d="M76430 72420
L76430 72740
L76460 72790
L76520 72820
L76600 72820
L76660 72790
L76690 72770
" />
<path d="M76970 72770
L77000 72790
L76970 72820
L76940 72790
L76970 72770
L76970 72820
" />
<path d="M77230 72790
L77290 72820
L77410 72820
L77460 72790
L77490 72740
L77490 72710
L77460 72650
L77410 72620
L77320 72620
L77260 72590
L77230 72540
L77230 72510
L77260 72450
L77320 72420
L77410 72420
L77460 72450
" />
<path d="M78010 72790
L77950 72820
L77840 72820
L77780 72790
L77750 72770
L77720 72710
L77720 72540
L77750 72480
L77780 72450
L77840 72420
L77950 72420
L78010 72450
" />
<path d="M78260 72820
L78260 72220
" />
<path d="M78520 72820
L78520 72510
L78490 72450
L78430 72420
L78350 72420
L78290 72450
L78260 72480
" />
<path d="M70940 73990
L71030 74020
L71170 74020
L71230 73990
L71260 73970
L71290 73910
L71290 73850
L71260 73790
L71230 73770
L71170 73740
L71060 73710
L71000 73680
L70970 73650
L70940 73590
L70940 73540
L70970 73480
L71000 73450
L71060 73420
L71200 73420
L71290 73450
" />
<path d="M71540 74020
L71540 73420
" />
<path d="M71800 74020
L71800 73710
L71770 73650
L71710 73620
L71630 73620
L71570 73650
L71540 73680
" />
<path d="M72310 73990
L72250 74020
L72140 74020
L72080 73990
L72050 73940
L72050 73710
L72080 73650
L72140 73620
L72250 73620
L72310 73650
L72340 73710
L72340 73770
L72050 73820
" />
<path d="M72820 73990
L72760 74020
L72650 74020
L72590 73990
L72560 73940
L72560 73710
L72590 73650
L72650 73620
L72760 73620
L72820 73650
L72850 73710
L72850 73770
L72560 73820
" />
<path d="M73020 73620
L73250 73620
" />
<path d="M73100 73420
L73100 73940
L73130 73990
L73190 74020
L73250 74020
" />
<path d="M73440 73970
L73470 73990
L73440 74020
L73410 73990
L73440 73970
L73440 74020
" />
<path d="M73440 73650
L73470 73680
L73440 73710
L73410 73680
L73440 73650
L73440 73710
" />
<path d="M74620 73390
L74110 74170
" />
<path d="M70230 71980
L70230 77980
" />
<path d="M70230 71980
L112230 71980
" />
<path d="M70230 71980
L112230 71980
" />
<path d="M70230 74380
L112230 74380
" />
<path d="M103430 75580
L103430 77980
" />
<path d="M70230 76780
L112230 76780
" />
<path d="M70230 75580
L112230 75580
" />
<path d="M76830 75580
L76830 76780
" />
</g>
<g style="fill:#A00000; fill-opacity:0.0; 
stroke:#A00000; stroke-width:0; stroke-opacity:1; 
stroke-linecap:round; stroke-linejoin:round;">
</g>
<g style="fill:#FFFF80; fill-opacity:0.6; 
stroke:#FFFF80; stroke-width:0; stroke-opacity:1; 
stroke-linecap:round; stroke-linejoin:round;">
<rect x="52000" y="28500" width="5000" height="3000" rx="0" />
</g>
<g style="fill:#A00000; fill-opacity:0.0; 
stroke:#A00000; stroke-width:100; stroke-opacity:1; 
stroke-linecap:round; stroke-linejoin:round;">
<rect x="52000" y="28500" width="5000" height="3000" rx="0" />
<path d="M54500 31500
L54500 32500
" />
</g>
<g style="fill:#00A0A0; fill-opacity:0.0; 
stroke:#00A0A0; stroke-width:100; stroke-opacity:1; 
stroke-linecap:round; stroke-linejoin:round;">
</g>
<g style="fill:#00A0A0; fill-opacity:0.0; 
stroke:#00A0A0; stroke-width:70; stroke-opacity:1; 
stroke-linecap:round; stroke-linejoin:round;">
<path d="M54280 30900
L54260 30930
L54260 30990
L54280 31050
L54320 31090
L54360 31100
L54430 31120
L54490 31120
L54570 31100
L54600 31090
L54640 31050
L54660 30990
L54660 30950
L54640 30900
L54620 30880
L54490 30880
L54490 30950
" />
<path d="M54660 30700
L54260 30700
L54660 30480
L54260 30480
" />
<path d="M54660 30280
L54260 30280
L54260 30190
L54280 30130
L54320 30090
L54360 30080
L54430 30060
L54490 30060
L54570 30080
L54600 30090
L54640 30130
L54660 30190
L54660 30280
" />
</g>
<g style="fill:#00A0A0; fill-opacity:0.0; 
stroke:#00A0A0; stroke-width:100; stroke-opacity:1; 
stroke-linecap:round; stroke-linejoin:round;">
</g>
<g style="fill:#A00000; fill-opacity:0.0; 
stroke:#A00000; stroke-width:100; stroke-opacity:1; 
stroke-linecap:round; stroke-linejoin:round;">
</g>
<g style="fill:#A00000; fill-opacity:0.0; 
stroke:#A00000; stroke-width:70; stroke-opacity:1; 
stroke-linecap:round; stroke-linejoin:round;">
<path d="M54360 31890
L54360 32110
" />
<path d="M54360 32000
L53960 32000
L54020 32040
L54060 32080
L54080 32110
" />
</g>
<g style="fill:#A00000; fill-opacity:0.0; 
stroke:#A00000; stroke-width:100; stroke-opacity:1; 
stroke-linecap:round; stroke-linejoin:round;">
<path d="M57000 29500
L58500 29500
" />
</g>
<g style="fill:#00A0A0; fill-opacity:0.0; 
stroke:#00A0A0; stroke-width:100; stroke-opacity:1; 
stroke-linecap:round; stroke-linejoin:round;">
</g>
<g style="fill:#00A0A0; fill-opacity:0.0; 
stroke:#00A0A0; stroke-width:70; stroke-opacity:1; 
stroke-linecap:round; stroke-linejoin:round;">
<path d="M55980 29260
L56110 29660
L56240 29260
" />
<path d="M56450 29260
L56530 29260
L56570 29280
L56600 29320
L56620 29400
L56620 29530
L56600 29600
L56570 29640
L56530 29660
L56450 29660
L56410 29640
L56380 29600
L56360 29530
L56360 29400
L56380 29320
L56410 29280
L56450 29260
" />
</g>
<g style="fill:#00A0A0; fill-opacity:0.0; 
stroke:#00A0A0; stroke-width:100; stroke-opacity:1; 
stroke-linecap:round; stroke-linejoin:round;">
</g>
<g style="fill:#A00000; fill-opacity:0.0; 
stroke:#A00000; stroke-width:100; stroke-opacity:1; 
stroke-linecap:round; stroke-linejoin:round;">
</g>
<g style="fill:#A00000; fill-opacity:0.0; 
stroke:#A00000; stroke-width:70; stroke-opacity:1; 
stroke-linecap:round; stroke-linejoin:round;">
<path d="M57640 29000
L57660 28980
L57690 28960
L57790 28960
L57830 28980
L57850 29000
L57860 29040
L57860 29080
L57850 29130
L57620 29360
L57860 29360
" />
</g>
<g style="fill:#A00000; fill-opacity:0.0; 
stroke:#A00000; stroke-width:100; stroke-opacity:1; 
stroke-linecap:round; stroke-linejoin:round;">
<path d="M52000 29500
L50500 29500
" />
</g>
<g style="fill:#00A0A0; fill-opacity:0.0; 
stroke:#00A0A0; stroke-width:100; stroke-opacity:1; 
stroke-linecap:round; stroke-linejoin:round;">
</g>
<g style="fill:#00A0A0; fill-opacity:0.0; 
stroke:#00A0A0; stroke-width:70; stroke-opacity:1; 
stroke-linecap:round; stroke-linejoin:round;">
<path d="M52340 29260
L52470 29660
L52600 29260
" />
<path d="M52740 29660
L52740 29260
" />
</g>
<g style="fill:#00A0A0; fill-opacity:0.0; 
stroke:#00A0A0; stroke-width:100; stroke-opacity:1; 
stroke-linecap:round; stroke-linejoin:round;">
</g>
<g style="fill:#A00000; fill-opacity:0.0; 
stroke:#A00000; stroke-width:100; stroke-opacity:1; 
stroke-linecap:round; stroke-linejoin:round;">
</g>
<g style="fill:#A00000; fill-opacity:0.0; 
stroke:#A00000; stroke-width:70; stroke-opacity:1; 
stroke-linecap:round; stroke-linejoin:round;">
<path d="M51120 28960
L51360 28960
L51230 29110
L51290 29110
L51330 29130
L51350 29150
L51360 29190
L51360 29290
L51350 29320
L51330 29340
L51290 29360
L51170 29360
L51140 29340
L51120 29320
" />
</g>
<g style="fill:#A00000; fill-opacity:0.0; 
stroke:#A00000; stroke-width:100; stroke-opacity:1; 
stroke-linecap:round; stroke-linejoin:round;">
</g>
<g style="fill:#00A0A0; fill-opacity:0.0; 
stroke:#00A0A0; stroke-width:70; stroke-opacity:1; 
stroke-linecap:round; stroke-linejoin:round;">
<path d="M54200 27230
L54200 27560
L54210 27590
L54230 27610
L54270 27630
L54350 27630
L54390 27610
L54400 27590
L54420 27560
L54420 27230
" />
<path d="M54820 27630
L54600 27630
" />
<path d="M54710 27630
L54710 27230
L54670 27290
L54630 27330
L54600 27350
" />
<path d="M51970 28130
L51970 27730
L52190 28130
L52190 27730
" />
<path d="M52610 28090
L52590 28110
L52540 28130
L52500 28130
L52440 28110
L52400 28070
L52390 28040
L52370 27960
L52370 27900
L52390 27830
L52400 27790
L52440 27750
L52500 27730
L52540 27730
L52590 27750
L52610 27770
" />
<path d="M52790 28130
L52790 27730
L52940 27730
L52980 27750
L52990 27770
L53010 27810
L53010 27870
L52990 27900
L52980 27920
L52940 27940
L52790 27940
" />
<path d="M53390 28130
L53170 28130
" />
<path d="M53280 28130
L53280 27730
L53240 27790
L53200 27830
L53170 27850
" />
<path d="M53770 28130
L53550 28130
" />
<path d="M53660 28130
L53660 27730
L53620 27790
L53580 27830
L53550 27850
" />
<path d="M54150 28130
L53930 28130
" />
<path d="M54040 28130
L54040 27730
L54000 27790
L53960 27830
L53930 27850
" />
<path d="M54290 27730
L54550 27730
L54380 28130
" />
<path d="M54690 28110
L54740 28130
L54840 28130
L54880 28110
L54900 28090
L54910 28060
L54910 28020
L54900 27980
L54880 27960
L54840 27940
L54760 27920
L54720 27900
L54710 27880
L54690 27850
L54690 27810
L54710 27770
L54720 27750
L54760 27730
L54860 27730
L54910 27750
" />
<path d="M55030 27730
L55260 27730
" />
<path d="M55140 28130
L55140 27730
" />
<path d="M55350 27730
L55590 27730
L55460 27880
L55520 27880
L55560 27900
L55580 27920
L55590 27960
L55590 28060
L55580 28090
L55560 28110
L55520 28130
L55400 28130
L55370 28110
L55350 28090
" />
<path d="M55730 27730
L55970 27730
L55840 27880
L55900 27880
L55940 27900
L55960 27920
L55970 27960
L55970 28060
L55960 28090
L55940 28110
L55900 28130
L55780 28130
L55750 28110
L55730 28090
" />
<path d="M56090 27730
L56320 27730
" />
<path d="M56200 28130
L56200 27730
" />
<path d="M56410 27730
L56650 27730
L56520 27880
L56580 27880
L56620 27900
L56640 27920
L56650 27960
L56650 28060
L56640 28090
L56620 28110
L56580 28130
L56460 28130
L56430 28110
L56410 28090
" />
<path d="M57030 27750
L57000 27730
L56940 27730
L56880 27750
L56840 27790
L56830 27830
L56810 27900
L56810 27960
L56830 28040
L56840 28070
L56880 28110
L56940 28130
L56980 28130
L57030 28110
L57050 28090
L57050 27960
L56980 27960
" />
</g>
<g style="fill:#00A0A0; fill-opacity:0.0; 
stroke:#00A0A0; stroke-width:0; stroke-opacity:1; 
stroke-linecap:round; stroke-linejoin:round;">
</g>
<g style="fill:#A00000; fill-opacity:0.0; 
stroke:#A00000; stroke-width:100; stroke-opacity:1; 
stroke-linecap:round; stroke-linejoin:round;">
<polyline fill="none;"
points="54000,36000
54500,36500
55000,36000
54000,36000
" /> 
</g>
<g style="fill:#00A000; fill-opacity:0.0; 
stroke:#00A000; stroke-width:100; stroke-opacity:1; 
stroke-linecap:round; stroke-linejoin:round;">
<path d="M54500 32500
L54500 36000
" />
<path d="M62000 31500
L62000 29500
" />
<path d="M58500 29500
L73500 29500
" />
</g>
<g style="fill:#00A000; fill-opacity:0.0; 
stroke:#00A000; stroke-width:0; stroke-opacity:1; 
stroke-linecap:round; stroke-linejoin:round;">
</g>
<g style="fill:#A00000; fill-opacity:0.0; 
stroke:#A00000; stroke-width:100; stroke-opacity:1; 
stroke-linecap:round; stroke-linejoin:round;">
<polyline fill="none;"
points="61500,36000
62000,36500
62500,36000
61500,36000
" /> 
</g>
<g style="fill:#00A000; fill-opacity:0.0; 
stroke:#00A000; stroke-width:100; stroke-opacity:1; 
stroke-linecap:round; stroke-linejoin:round;">
<path d="M62000 36000
L62000 35500
" />
</g>
<g style="fill:#00A000; fill-opacity:0.0; 
stroke:#00A000; stroke-width:0; stroke-opacity:1; 
stroke-linecap:round; stroke-linejoin:round;">
</g>
<g style="fill:#A00000; fill-opacity:0.0; 
stroke:#A00000; stroke-width:80; stroke-opacity:1; 
stroke-linecap:round; stroke-linejoin:round;">
<polyline fill="none;"
points="61200,33000
61200,34000
62800,34000
62800,33000
" /> 
</g>
<g style="fill:#A00000; fill-opacity:1.0; 
stroke:#A00000; stroke-width:100; stroke-opacity:1; 
stroke-linecap:round; stroke-linejoin:round;">
<polyline style="fill-rule:evenodd;"
points="61500,33000
61500,33700
62500,33700
62500,33000
" /> 
<path d="M62000 33000
L62000 31500
" />
<path d="M62000 34000
L62000 35500
" />
</g>
<g style="fill:#00A0A0; fill-opacity:0.0; 
stroke:#00A0A0; stroke-width:70; stroke-opacity:1; 
stroke-linecap:round; stroke-linejoin:round;">
<path d="M62820 32590
L62800 32610
L62750 32630
L62710 32630
L62650 32610
L62610 32570
L62600 32540
L62580 32460
L62580 32400
L62600 32330
L62610 32290
L62650 32250
L62710 32230
L62750 32230
L62800 32250
L62820 32270
" />
<path d="M63200 32630
L62980 32630
" />
<path d="M63090 32630
L63090 32230
L63050 32290
L63010 32330
L62980 32350
" />
<path d="M62800 34630
L62580 34630
" />
<path d="M62690 34630
L62690 34230
L62650 34290
L62610 34330
L62580 34350
" />
<path d="M63050 34230
L63090 34230
L63130 34250
L63150 34270
L63170 34310
L63180 34380
L63180 34480
L63170 34560
L63150 34590
L63130 34610
L63090 34630
L63050 34630
L63010 34610
L62990 34590
L62980 34560
L62960 34480
L62960 34380
L62980 34310
L62990 34270
L63010 34250
L63050 34230
" />
<path d="M63530 34370
L63530 34630
" />
<path d="M63360 34370
L63360 34570
L63370 34610
L63410 34630
L63470 34630
L63510 34610
L63530 34590
" />
</g>
<g style="fill:#00A0A0; fill-opacity:0.0; 
stroke:#00A0A0; stroke-width:0; stroke-opacity:1; 
stroke-linecap:round; stroke-linejoin:round;">
</g>
<g style="fill:#A00000; fill-opacity:0.0; 
stroke:#A00000; stroke-width:100; stroke-opacity:1; 
stroke-linecap:round; stroke-linejoin:round;">
<rect x="34000" y="30500" width="2000" height="3000" rx="0" />
<circle cx="36350" cy="31000" r="350" /> 
<path d="M36700 31000
L38500 31000
" />
<path d="M37430 30840
L37080 30840
" />
<path d="M37260 30840
L37260 30240
L37200 30330
L37140 30390
L37080 30410
" />
<circle cx="36350" cy="32000" r="350" /> 
<path d="M36700 32000
L38500 32000
" />
<path d="M37080 31300
L37110 31270
L37170 31240
L37310 31240
L37370 31270
L37400 31300
L37430 31360
L37430 31410
L37400 31500
L37060 31840
L37430 31840
" />
<circle cx="36350" cy="33000" r="350" /> 
<path d="M36700 33000
L38500 33000
" />
<path d="M37060 32240
L37430 32240
L37230 32470
L37310 32470
L37370 32500
L37400 32530
L37430 32590
L37430 32730
L37400 32790
L37370 32810
L37310 32840
L37140 32840
L37080 32810
L37060 32790
" />
</g>
<g style="fill:#00A0A0; fill-opacity:0.0; 
stroke:#00A0A0; stroke-width:80; stroke-opacity:1; 
stroke-linecap:round; stroke-linejoin:round;">
<path d="M35740 32370
L35240 32370
" />
<path d="M35740 32090
L35460 32300
" />
<path d="M35240 32090
L35530 32370
" />
<path d="M35290 31890
L35270 31870
L35240 31820
L35240 31700
L35270 31660
L35290 31630
L35340 31610
L35390 31610
L35460 31630
L35740 31920
L35740 31610
" />
</g>
<g style="fill:#00A0A0; fill-opacity:0.0; 
stroke:#00A0A0; stroke-width:70; stroke-opacity:1; 
stroke-linecap:round; stroke-linejoin:round;">
<path d="M34690 32750
L34290 32750
" />
<path d="M34690 32560
L34290 32560
L34690 32340
L34290 32340
" />
<path d="M34690 32140
L34290 32140
L34290 31990
L34310 31950
L34330 31940
L34370 31920
L34430 31920
L34460 31940
L34480 31950
L34500 31990
L34500 32140
" />
<path d="M34290 31740
L34620 31740
L34650 31730
L34670 31710
L34690 31670
L34690 31590
L34670 31550
L34650 31540
L34620 31520
L34290 31520
" />
<path d="M34290 31380
L34290 31150
" />
<path d="M34690 31270
L34290 31270
" />
</g>
<g style="fill:#00A0A0; fill-opacity:0.0; 
stroke:#00A0A0; stroke-width:0; stroke-opacity:1; 
stroke-linecap:round; stroke-linejoin:round;">
</g>
<g style="fill:#A00000; fill-opacity:0.0; 
stroke:#A00000; stroke-width:100; stroke-opacity:1; 
stroke-linecap:round; stroke-linejoin:round;">
<polyline fill="none;"
points="40000,37000
40500,37500
41000,37000
40000,37000
" /> 
</g>
<g style="fill:#00A000; fill-opacity:0.0; 
stroke:#00A000; stroke-width:100; stroke-opacity:1; 
stroke-linecap:round; stroke-linejoin:round;">
<path d="M40500 37000
L40500 33000
" />
<path d="M40500 33000
L38500 33000
" />
<path d="M38500 31000
L41000 31000
" />
<path d="M41000 31000
L41000 29500
" />
<path d="M41000 29500
L50500 29500
" />
<path d="M38500 32000
L43500 32000
" />
</g>
<g style="fill:#00A000; fill-opacity:0.0; 
stroke:#00A000; stroke-width:80; stroke-opacity:1; 
stroke-linecap:round; stroke-linejoin:round;">
</g>
<g style="fill:#A00000; fill-opacity:0.0; 
stroke:#A00000; stroke-width:80; stroke-opacity:1; 
stroke-linecap:round; stroke-linejoin:round;">
<path d="M43810 31760
L44030 31760
" />
<path d="M43920 32150
L43920 31760
" />
<path d="M44130 31760
L44390 32150
" />
<path d="M44390 31760
L44130 32150
" />
<path d="M44440 32190
L44740 32190
" />
<path d="M45000 31890
L45000 32150
" />
<path d="M44830 31890
L44830 32100
L44850 32130
L44890 32150
L44940 32150
L44980 32130
L45000 32120
" />
<path d="M45410 32120
L45390 32130
L45330 32150
L45290 32150
L45240 32130
L45200 32100
L45180 32060
L45160 31990
L45160 31930
L45180 31860
L45200 31820
L45240 31780
L45290 31760
L45330 31760
L45390 31780
L45410 31800
" />
</g>
<g style="fill:#A00000; fill-opacity:0.0; 
stroke:#A00000; stroke-width:100; stroke-opacity:1; 
stroke-linecap:round; stroke-linejoin:round;">
<polyline fill="none;"
points="43500,32000
43690,32480
45710,32480
45710,32000
45710,31520
43690,31520
43500,32000
" /> 
</g>
<g style="fill:#A00000; fill-opacity:0.0; 
stroke:#A00000; stroke-width:0; stroke-opacity:1; 
stroke-linecap:round; stroke-linejoin:round;">
</g>
<g style="fill:#A00000; fill-opacity:0.0; 
stroke:#A00000; stroke-width:100; stroke-opacity:1; 
stroke-linecap:round; stroke-linejoin:round;">
<rect x="76000" y="29000" width="2000" height="3000" rx="0" />
<circle cx="75650" cy="29500" r="350" /> 
<path d="M75300 29500
L73500 29500
" />
<path d="M74930 29340
L74580 29340
" />
<path d="M74760 29340
L74760 28740
L74700 28830
L74640 28890
L74580 28910
" />
<circle cx="75650" cy="30500" r="350" /> 
<path d="M75300 30500
L73500 30500
" />
<path d="M74580 29800
L74610 29770
L74670 29740
L74810 29740
L74870 29770
L74900 29800
L74930 29860
L74930 29910
L74900 30000
L74560 30340
L74930 30340
" />
<circle cx="75650" cy="31500" r="350" /> 
<path d="M75300 31500
L73500 31500
" />
<path d="M74560 30740
L74930 30740
L74730 30970
L74810 30970
L74870 31000
L74900 31030
L74930 31090
L74930 31230
L74900 31290
L74870 31310
L74810 31340
L74640 31340
L74580 31310
L74560 31290
" />
</g>
<g style="fill:#00A0A0; fill-opacity:0.0; 
stroke:#00A0A0; stroke-width:80; stroke-opacity:1; 
stroke-linecap:round; stroke-linejoin:round;">
<path d="M76660 30870
L76160 30870
" />
<path d="M76660 30590
L76380 30800
" />
<path d="M76160 30590
L76450 30870
" />
<path d="M76660 30110
L76660 30390
" />
<path d="M76660 30250
L76160 30250
L76230 30300
L76280 30350
L76310 30390
" />
</g>
<g style="fill:#00A0A0; fill-opacity:0.0; 
stroke:#00A0A0; stroke-width:70; stroke-opacity:1; 
stroke-linecap:round; stroke-linejoin:round;">
<path d="M77230 31460
L77230 31380
L77250 31340
L77290 31310
L77370 31290
L77500 31290
L77570 31310
L77610 31340
L77630 31380
L77630 31460
L77610 31500
L77570 31530
L77500 31550
L77370 31550
L77290 31530
L77250 31500
L77230 31460
" />
<path d="M77230 31110
L77560 31110
L77590 31100
L77610 31080
L77630 31040
L77630 30960
L77610 30920
L77590 30910
L77560 30890
L77230 30890
" />
<path d="M77230 30750
L77230 30520
" />
<path d="M77630 30640
L77230 30640
" />
<path d="M77630 30390
L77230 30390
L77230 30240
L77250 30200
L77270 30190
L77310 30170
L77370 30170
L77400 30190
L77420 30200
L77440 30240
L77440 30390
" />
<path d="M77230 29990
L77560 29990
L77590 29980
L77610 29960
L77630 29920
L77630 29840
L77610 29800
L77590 29790
L77560 29770
L77230 29770
" />
<path d="M77230 29630
L77230 29400
" />
<path d="M77630 29520
L77230 29520
" />
</g>
<g style="fill:#00A0A0; fill-opacity:0.0; 
stroke:#00A0A0; stroke-width:0; stroke-opacity:1; 
stroke-linecap:round; stroke-linejoin:round;">
</g>
<g style="fill:#00A000; fill-opacity:1.0; 
stroke:#00A000; stroke-width:100; stroke-opacity:1; 
stroke-linecap:round; stroke-linejoin:round;">
<circle cx="62000" cy="29500" r="160" /> 
</g>
<g style="fill:#00A000; fill-opacity:1.0; 
stroke:#00A000; stroke-width:0; stroke-opacity:1; 
stroke-linecap:round; stroke-linejoin:round;">
</g>
<g style="fill:#A00000; fill-opacity:0.0; 
stroke:#A00000; stroke-width:100; stroke-opacity:1; 
stroke-linecap:round; stroke-linejoin:round;">
<polyline fill="none;"
points="70500,34500
71000,35000
71500,34500
70500,34500
" /> 
</g>
<g style="fill:#00A000; fill-opacity:0.0; 
stroke:#00A000; stroke-width:100; stroke-opacity:1; 
stroke-linecap:round; stroke-linejoin:round;">
<path d="M71000 34500
L71000 31500
" />
<path d="M71000 31500
L73500 31500
" />
</g>
<g style="fill:#00A000; fill-opacity:0.0; 
stroke:#00A000; stroke-width:80; stroke-opacity:1; 
stroke-linecap:round; stroke-linejoin:round;">
</g>
<g style="fill:#A00000; fill-opacity:0.0; 
stroke:#A00000; stroke-width:80; stroke-opacity:1; 
stroke-linecap:round; stroke-linejoin:round;">
<path d="M58590 43650
L58460 43470
" />
<path d="M58360 43650
L58360 43260
L58510 43260
L58550 43280
L58570 43300
L58590 43340
L58590 43390
L58570 43430
L58550 43450
L58510 43470
L58360 43470
" />
<path d="M58720 43260
L58980 43650
" />
<path d="M58980 43260
L58720 43650
" />
<path d="M59030 43690
L59330 43690
" />
<path d="M59390 43390
L59460 43650
L59530 43470
L59610 43650
L59680 43390
" />
<path d="M59830 43650
L59830 43390
" />
<path d="M59830 43260
L59810 43280
L59830 43300
L59850 43280
L59830 43260
L59830 43300
" />
<path d="M59970 43390
L60120 43390
" />
<path d="M60020 43650
L60020 43320
L60040 43280
L60080 43260
L60120 43260
" />
<path d="M60240 43650
L60240 43390
" />
<path d="M60240 43260
L60220 43280
L60240 43300
L60260 43280
L60240 43260
L60240 43300
" />
</g>
<g style="fill:#A00000; fill-opacity:0.0; 
stroke:#A00000; stroke-width:100; stroke-opacity:1; 
stroke-linecap:round; stroke-linejoin:round;">
<polyline fill="none;"
points="58000,43500
58190,43980
60570,43980
60570,43500
60570,43020
58190,43020
58000,43500
" /> 
</g>
<g style="fill:#00A000; fill-opacity:0.0; 
stroke:#00A000; stroke-width:100; stroke-opacity:1; 
stroke-linecap:round; stroke-linejoin:round;">
<path d="M70000 30500
L73500 30500
" />
</g>
<g style="fill:#00A000; fill-opacity:0.0; 
stroke:#00A000; stroke-width:0; stroke-opacity:1; 
stroke-linecap:round; stroke-linejoin:round;">
</g>
<g style="fill:#A00000; fill-opacity:0.0; 
stroke:#A00000; stroke-width:120; stroke-opacity:1; 
stroke-linecap:round; stroke-linejoin:round;">
<rect x="50000" y="43100" width="3000" height="800" rx="0" />
</g>
<g style="fill:#A00000; fill-opacity:0.0; 
stroke:#A00000; stroke-width:100; stroke-opacity:1; 
stroke-linecap:round; stroke-linejoin:round;">
<path d="M50000 43500
L49000 43500
" />
</g>
<g style="fill:#00A0A0; fill-opacity:0.0; 
stroke:#00A0A0; stroke-width:100; stroke-opacity:1; 
stroke-linecap:round; stroke-linejoin:round;">
</g>
<g style="fill:#A00000; fill-opacity:0.0; 
stroke:#A00000; stroke-width:100; stroke-opacity:1; 
stroke-linecap:round; stroke-linejoin:round;">
<path d="M53000 43500
L54000 43500
" />
</g>
<g style="fill:#00A0A0; fill-opacity:0.0; 
stroke:#00A0A0; stroke-width:100; stroke-opacity:1; 
stroke-linecap:round; stroke-linejoin:round;">
</g>
<g style="fill:#00A0A0; fill-opacity:0.0; 
stroke:#00A0A0; stroke-width:70; stroke-opacity:1; 
stroke-linecap:round; stroke-linejoin:round;">
<path d="M51430 42890
L51300 42700
" />
<path d="M51210 42890
L51210 42490
L51360 42490
L51400 42510
L51410 42530
L51430 42570
L51430 42630
L51410 42660
L51400 42680
L51360 42700
L51210 42700
" />
<path d="M51810 42890
L51590 42890
" />
<path d="M51700 42890
L51700 42490
L51660 42550
L51620 42590
L51590 42610
" />
<path d="M51610 43620
L51480 43430
" />
<path d="M51390 43620
L51390 43220
L51540 43220
L51580 43240
L51590 43260
L51610 43300
L51610 43360
L51590 43390
L51580 43410
L51540 43430
L51390 43430
" />
</g>
<g style="fill:#00A0A0; fill-opacity:0.0; 
stroke:#00A0A0; stroke-width:0; stroke-opacity:1; 
stroke-linecap:round; stroke-linejoin:round;">
</g>
<g style="fill:#A00000; fill-opacity:0.0; 
stroke:#A00000; stroke-width:120; stroke-opacity:1; 
stroke-linecap:round; stroke-linejoin:round;">
<rect x="54600" y="46000" width="800" height="3000" rx="0" />
</g>
<g style="fill:#A00000; fill-opacity:0.0; 
stroke:#A00000; stroke-width:100; stroke-opacity:1; 
stroke-linecap:round; stroke-linejoin:round;">
<path d="M55000 46000
L55000 45000
" />
</g>
<g style="fill:#00A0A0; fill-opacity:0.0; 
stroke:#00A0A0; stroke-width:100; stroke-opacity:1; 
stroke-linecap:round; stroke-linejoin:round;">
</g>
<g style="fill:#A00000; fill-opacity:0.0; 
stroke:#A00000; stroke-width:100; stroke-opacity:1; 
stroke-linecap:round; stroke-linejoin:round;">
<path d="M55000 49000
L55000 50000
" />
</g>
<g style="fill:#00A0A0; fill-opacity:0.0; 
stroke:#00A0A0; stroke-width:100; stroke-opacity:1; 
stroke-linecap:round; stroke-linejoin:round;">
</g>
<g style="fill:#00A0A0; fill-opacity:0.0; 
stroke:#00A0A0; stroke-width:70; stroke-opacity:1; 
stroke-linecap:round; stroke-linejoin:round;">
<path d="M55930 47570
L55740 47700
" />
<path d="M55930 47790
L55530 47790
L55530 47640
L55550 47600
L55570 47590
L55610 47570
L55670 47570
L55700 47590
L55720 47600
L55740 47640
L55740 47790
" />
<path d="M55570 47410
L55550 47390
L55530 47360
L55530 47260
L55550 47220
L55570 47200
L55610 47190
L55650 47190
L55700 47200
L55930 47430
L55930 47190
" />
<path d="M55200 47540
L55200 47760
" />
<path d="M55200 47650
L54800 47650
L54860 47690
L54900 47730
L54920 47760
" />
<path d="M55200 47360
L54800 47360
" />
<path d="M55050 47330
L55200 47210
" />
<path d="M54940 47210
L55090 47360
" />
</g>
<g style="fill:#00A0A0; fill-opacity:0.0; 
stroke:#00A0A0; stroke-width:0; stroke-opacity:1; 
stroke-linecap:round; stroke-linejoin:round;">
</g>
<g style="fill:#A00000; fill-opacity:0.0; 
stroke:#A00000; stroke-width:100; stroke-opacity:1; 
stroke-linecap:round; stroke-linejoin:round;">
<polyline fill="none;"
points="54500,52000
55000,52500
55500,52000
54500,52000
" /> 
</g>
<g style="fill:#00A000; fill-opacity:0.0; 
stroke:#00A000; stroke-width:100; stroke-opacity:1; 
stroke-linecap:round; stroke-linejoin:round;">
<path d="M55000 52000
L55000 50000
" />
<path d="M55000 45000
L55000 43500
" />
<path d="M54000 43500
L58000 43500
" />
</g>
<g style="fill:#00A000; fill-opacity:0.0; 
stroke:#00A000; stroke-width:0; stroke-opacity:1; 
stroke-linecap:round; stroke-linejoin:round;">
</g>
<g style="fill:#00A000; fill-opacity:1.0; 
stroke:#00A000; stroke-width:100; stroke-opacity:1; 
stroke-linecap:round; stroke-linejoin:round;">
<circle cx="55000" cy="43500" r="160" /> 
</g>
<g style="fill:#00A000; fill-opacity:1.0; 
stroke:#00A000; stroke-width:80; stroke-opacity:1; 
stroke-linecap:round; stroke-linejoin:round;">
</g>
<g style="fill:#A00000; fill-opacity:0.0; 
stroke:#A00000; stroke-width:80; stroke-opacity:1; 
stroke-linecap:round; stroke-linejoin:round;">
<path d="M67980 30650
L67850 30470
" />
<path d="M67750 30650
L67750 30260
L67900 30260
L67940 30280
L67960 30300
L67980 30340
L67980 30390
L67960 30430
L67940 30450
L67900 30470
L67750 30470
" />
<path d="M68110 30260
L68370 30650
" />
<path d="M68370 30260
L68110 30650
" />
<path d="M68420 30690
L68720 30690
" />
<path d="M68780 30390
L68850 30650
L68920 30470
L69000 30650
L69070 30390
" />
<path d="M69220 30650
L69220 30390
" />
<path d="M69220 30260
L69200 30280
L69220 30300
L69240 30280
L69220 30260
L69220 30300
" />
<path d="M69360 30390
L69510 30390
" />
<path d="M69410 30650
L69410 30320
L69430 30280
L69470 30260
L69510 30260
" />
<path d="M69630 30650
L69630 30390
" />
<path d="M69630 30260
L69610 30280
L69630 30300
L69650 30280
L69630 30260
L69630 30300
" />
</g>
<g style="fill:#A00000; fill-opacity:0.0; 
stroke:#A00000; stroke-width:100; stroke-opacity:1; 
stroke-linecap:round; stroke-linejoin:round;">
<polyline fill="none;"
points="70000,30500
69810,30020
67430,30020
67430,30500
67430,30980
69810,30980
70000,30500
" /> 
</g>
<g style="fill:#00A000; fill-opacity:0.0; 
stroke:#00A000; stroke-width:100; stroke-opacity:1; 
stroke-linecap:round; stroke-linejoin:round;">
<path d="M49000 43500
L47000 43500
" />
</g>
<g style="fill:#00A000; fill-opacity:0.0; 
stroke:#00A000; stroke-width:80; stroke-opacity:1; 
stroke-linecap:round; stroke-linejoin:round;">
</g>
<g style="fill:#A00000; fill-opacity:0.0; 
stroke:#A00000; stroke-width:80; stroke-opacity:1; 
stroke-linecap:round; stroke-linejoin:round;">
<path d="M45060 43260
L45280 43260
" />
<path d="M45170 43650
L45170 43260
" />
<path d="M45380 43260
L45640 43650
" />
<path d="M45640 43260
L45380 43650
" />
<path d="M45690 43690
L45990 43690
" />
<path d="M46250 43390
L46250 43650
" />
<path d="M46080 43390
L46080 43600
L46100 43630
L46140 43650
L46190 43650
L46230 43630
L46250 43620
" />
<path d="M46660 43620
L46640 43630
L46580 43650
L46540 43650
L46490 43630
L46450 43600
L46430 43560
L46410 43490
L46410 43430
L46430 43360
L46450 43320
L46490 43280
L46540 43260
L46580 43260
L46640 43280
L46660 43300
" />
</g>
<g style="fill:#A00000; fill-opacity:0.0; 
stroke:#A00000; stroke-width:100; stroke-opacity:1; 
stroke-linecap:round; stroke-linejoin:round;">
<polyline fill="none;"
points="47000,43500
46810,43020
44790,43020
44790,43500
44790,43980
46810,43980
47000,43500
" /> 
</g>
<g style="fill:#00A000; fill-opacity:0.0; 
stroke:#00A000; stroke-width:100; stroke-opacity:1; 
stroke-linecap:round; stroke-linejoin:round;">
<path d="M43500 29500
L43500 25000
" />
<path d="M43500 25000
L45000 25000
" />
</g>
<g style="fill:#00A000; fill-opacity:0.0; 
stroke:#00A000; stroke-width:0; stroke-opacity:1; 
stroke-linecap:round; stroke-linejoin:round;">
</g>
<g style="fill:#00A000; fill-opacity:1.0; 
stroke:#00A000; stroke-width:100; stroke-opacity:1; 
stroke-linecap:round; stroke-linejoin:round;">
<circle cx="43500" cy="29500" r="160" /> 
<path d="M64000 29500
L64000 25000
" />
<path d="M64000 25000
L65500 25000
" />
</g>
<g style="fill:#00A000; fill-opacity:1.0; 
stroke:#00A000; stroke-width:0; stroke-opacity:1; 
stroke-linecap:round; stroke-linejoin:round;">
</g>
<g style="fill:#00A000; fill-opacity:1.0; 
stroke:#00A000; stroke-width:100; stroke-opacity:1; 
stroke-linecap:round; stroke-linejoin:round;">
<circle cx="64000" cy="29500" r="160" /> 
</g>
<g style="fill:#00A000; fill-opacity:1.0; 
stroke:#00A000; stroke-width:80; stroke-opacity:1; 
stroke-linecap:round; stroke-linejoin:round;">
</g>
<g style="fill:#A00000; fill-opacity:0.0; 
stroke:#A00000; stroke-width:80; stroke-opacity:1; 
stroke-linecap:round; stroke-linejoin:round;">
<path d="M45550 24760
L45360 24760
L45340 24950
L45360 24930
L45400 24910
L45490 24910
L45530 24930
L45550 24950
L45570 24990
L45570 25080
L45550 25120
L45530 25130
L45490 25150
L45400 25150
L45360 25130
L45340 25120
" />
<path d="M45680 24760
L45810 25150
L45940 24760
" />
</g>
<g style="fill:#A00000; fill-opacity:0.0; 
stroke:#A00000; stroke-width:100; stroke-opacity:1; 
stroke-linecap:round; stroke-linejoin:round;">
<polyline fill="none;"
points="45000,25000
45190,25480
46200,25480
46200,25000
46200,24520
45190,24520
45000,25000
" /> 
</g>
<g style="fill:#A00000; fill-opacity:0.0; 
stroke:#A00000; stroke-width:80; stroke-opacity:1; 
stroke-linecap:round; stroke-linejoin:round;">
<path d="M65830 24760
L66070 24760
L65940 24910
L65990 24910
L66030 24930
L66050 24950
L66070 24990
L66070 25080
L66050 25120
L66030 25130
L65990 25150
L65880 25150
L65840 25130
L65830 25120
" />
<path d="M66180 24760
L66310 25150
L66440 24760
" />
<path d="M66530 24760
L66770 24760
L66640 24910
L66690 24910
L66730 24930
L66750 24950
L66770 24990
L66770 25080
L66750 25120
L66730 25130
L66690 25150
L66580 25150
L66540 25130
L66530 25120
" />
</g>
<g style="fill:#A00000; fill-opacity:0.0; 
stroke:#A00000; stroke-width:100; stroke-opacity:1; 
stroke-linecap:round; stroke-linejoin:round;">
<polyline fill="none;"
points="65500,25000
65690,25480
67070,25480
67070,25000
67070,24520
65690,24520
65500,25000
" /> 
</g> 
</svg>
